<svg id="Layer_1" data-name="Layer 1" xmlns="http://www.w3.org/2000/svg" viewBox="0 0 500 500"><defs><style>.cls-1{fill:#a5ce34;}.cls-2{fill:#79ad14;}.cls-3{fill:#129b32;}.cls-4{fill:#ff8dae;}.cls-5{fill:#ff69a3;}.cls-6{fill:none;stroke:#000;stroke-linecap:round;stroke-linejoin:round;stroke-width:15px;}.cls-7{fill:#ffd72e;}.cls-8{fill:#ffbf0b;}</style></defs><title>easter-eggs_5</title><path class="cls-1" d="M263.85,394.23h86.59s21.68-145.4,94.25-241.31C444.69,152.92,318.75,193,263.85,394.23Z"/><path class="cls-2" d="M350.44,394.23s33.3-106.09,110.13-157.75c0,0-37.75,62.49-40.4,157.75Z"/><path class="cls-1" d="M420.17,394.23S447,332,492.49,297.06l-8.28,97.2Z"/><path class="cls-1" d="M186.71,394.26S194,239.8,7.51,145.69c0,0,110.09,114.71,121.64,248.54Z"/><path class="cls-2" d="M129.15,394.23S122.93,282.42,11.06,239.8c0,0,71.92,78,72.81,154.43Z"/><path class="cls-3" d="M83.87,394.23h-59s-2.84-32-17.38-77.21C7.51,317,62.53,345.79,83.87,394.23Z"/><path class="cls-1" d="M83.87,394.23h-59s-2.84-32-17.38-77.21C7.51,317,62.53,345.79,83.87,394.23Z"/><path class="cls-4" d="M274.13,105.74c-60.75,0-110,117.73-110,178.49a111.35,111.35,0,0,0,1.41,17.63,260.77,260.77,0,0,1,13.29,37.33A110,110,0,0,0,264,393.76c25.63-93.64,66.63-152.31,103.11-188.27C347.58,154.52,313.24,105.74,274.13,105.74Z"/><path class="cls-5" d="M324.36,233.29C311,198.72,271.69,150.38,231,125.43a146,146,0,0,0-19.72,22.72c38.06,26,73.56,70.64,86.13,103.14a104.7,104.7,0,0,1,7.1,39.21s4.09-10.91,24.87-40.31A105.21,105.21,0,0,0,324.36,233.29Z"/><path class="cls-6" d="M263.85,394.23h86.59s21.68-145.4,94.25-241.31C444.69,152.92,318.75,193,263.85,394.23Z"/><path class="cls-6" d="M350.44,394.23s33.3-106.09,110.13-157.75c0,0-37.75,62.49-40.4,157.75Z"/><path class="cls-6" d="M420.17,394.23S447,332,492.49,297.06l-8.28,97.2Z"/><path class="cls-6" d="M274.13,105.74c-60.75,0-110,117.73-110,178.49a111.35,111.35,0,0,0,1.41,17.63,260.77,260.77,0,0,1,13.29,37.33A110,110,0,0,0,264,393.76c25.63-93.64,66.63-152.31,103.11-188.27C347.58,154.52,313.24,105.74,274.13,105.74Z"/><path class="cls-6" d="M186.71,394.26S194,239.8,7.51,145.69c0,0,110.09,114.71,121.64,248.54Z"/><path class="cls-6" d="M129.15,394.23S122.93,282.42,11.06,239.8c0,0,71.92,78,72.81,154.43Z"/><path class="cls-6" d="M83.87,394.23h-59s-2.84-32-17.38-77.21C7.51,317,62.53,345.79,83.87,394.23Z"/><path class="cls-6" d="M83.87,394.23h-59s-2.84-32-17.38-77.21C7.51,317,62.53,345.79,83.87,394.23Z"/><path class="cls-7" d="M297.36,251.29c-20.93-54.1-105.36-142-159.46-121-24.18,9.35-38.2,38.86-44.45,73.47,93.05,84.17,93.48,180.19,93.28,189.75a105.24,105.24,0,0,0,86.2-29.24,469.2,469.2,0,0,1,31.53-73.74A104.7,104.7,0,0,0,297.36,251.29Z"/><path class="cls-8" d="M297.36,251.29c-20.93-54.1-105.36-142-159.46-121-11.19,4.33-20.21,13-27.28,24.46,58.69-18.55,147.57,74.51,169.89,132.17a113.74,113.74,0,0,1,7.63,37.43c5.21-12.06,10.68-23.33,16.32-33.82A104.7,104.7,0,0,0,297.36,251.29Z"/><path class="cls-6" d="M297.36,251.29c-20.93-54.1-105.36-142-159.46-121-24.18,9.35-38.2,38.86-44.45,73.47,93.05,84.17,93.48,180.19,93.28,189.75a105.24,105.24,0,0,0,86.2-29.24,469.2,469.2,0,0,1,31.53-73.74A104.7,104.7,0,0,0,297.36,251.29Z"/></svg>